
<svg width="200" height="60" viewBox="0 0 200 60" fill="none" xmlns="http://www.w3.org/2000/svg">
  <path d="M60 30C60 46.5685 46.5685 60 30 60C13.4315 60 0 46.5685 0 30C0 13.4315 13.4315 0 30 0C46.5685 0 60 13.4315 60 30Z" fill="white"/>
  <path d="M160 18H140V42H160V18Z" fill="white"/>
  <path d="M180 18H164V42H180V18Z" fill="white"/>
  <path d="M199 18H183V42H199V18Z" fill="white"/>
  <path d="M121 18H105V42H121V18Z" fill="white"/>
  <path d="M140 18H124V42H140V18Z" fill="white"/>
  <path d="M105 18H89V42H105V18Z" fill="white"/>
  <path d="M89 18H73V42H89V18Z" fill="white"/>
  <path d="M73 18H57V42H73V18Z" fill="white"/>
  <path d="M43 30C43 37.1797 37.1797 43 30 43C22.8203 43 17 37.1797 17 30C17 22.8203 22.8203 17 30 17C37.1797 17 43 22.8203 43 30Z" fill="white"/>
  <path d="M37 30C37 33.866 33.866 37 30 37C26.134 37 23 33.866 23 30C23 26.134 26.134 23 30 23C33.866 23 37 26.134 37 30Z" fill="black"/>
</svg>
